<svg width="275" height="70" viewBox="0 0 275 70" fill="none" xmlns="http://www.w3.org/2000/svg">
<g clip-path="url(#clip0_125_29)">
<mask id="mask0_125_29" style="mask-type:alpha" maskUnits="userSpaceOnUse" x="0" y="0" width="71" height="70">
<path d="M67.5842 2.65152C65.8166 0.883838 63.5186 0 61.1617 0C58.4512 0 56.0354 1.17845 54.3856 3.06397L35.1179 22.3317L15.9681 3.18182C14.3183 1.23737 11.8435 0 9.07416 0C6.71726 0 4.41928 0.883838 2.65161 2.65152C0.648243 4.65488 -0.235595 7.3064 0.0590176 9.95791V60.9259C0.0590176 65.9343 4.12467 70 9.13309 70C14.1415 70 18.2072 65.9343 18.2072 60.9259V30.9343L28.6954 41.4226C30.463 43.1902 32.761 44.0741 35.1179 44.0741C35.1768 44.0741 35.1768 44.0741 35.2358 44.0741C35.2947 44.0741 35.2947 44.0741 35.3536 44.0741C37.6516 44.0741 40.0085 43.1902 41.7762 41.4226L52.2644 30.9343V60.9259C52.2644 65.9343 56.33 70 61.3384 70C66.3469 70 70.4125 65.9343 70.4125 60.9259V9.72222C70.3536 7.18855 69.5287 4.59596 67.5842 2.65152Z" fill="white"/>
</mask>
<g mask="url(#mask0_125_29)">
<ellipse cx="53.6193" cy="90.1515" rx="101.936" ry="101.936" fill="#FA5045"/>
<ellipse cx="53.6193" cy="90.1515" rx="89.8007" ry="89.8008" fill="#FF764A"/>
<ellipse cx="53.6194" cy="90.1516" rx="77.6655" ry="77.6655" fill="#FFCF3F"/>
<ellipse cx="53.6197" cy="90.1516" rx="65.1258" ry="65.1258" fill="#5EDC56"/>
<ellipse cx="53.6194" cy="90.1516" rx="52.9905" ry="52.9906" fill="#1EB8FC"/>
<ellipse cx="53.6194" cy="90.1516" rx="40.8553" ry="40.8553" fill="#AD6DDF"/>
</g>
<path opacity="0.5" d="M0 10.0168V60.9259C0 65.9344 4.06565 69.9411 9.07407 69.9411C14.0825 69.9411 18.1481 65.8754 18.1481 60.9259V30.9933L2.59259 15.4966C1.06061 13.9647 0.176768 12.0202 0 10.0168Z" fill="url(#paint0_linear_125_29)"/>
<path d="M109.68 50V29.6H114.6V34.4H114.72V50H109.68ZM123.4 50V36.84C123.4 35.64 123.093 34.76 122.48 34.2C121.893 33.6133 121.053 33.32 119.96 33.32C119 33.32 118.12 33.5467 117.32 34C116.52 34.4533 115.88 35.0933 115.4 35.92C114.947 36.7467 114.72 37.7067 114.72 38.8L114.2 34.12C114.893 32.6267 115.893 31.44 117.2 30.56C118.507 29.6533 120.027 29.2 121.76 29.2C123.84 29.2 125.48 29.8 126.68 31C127.88 32.1733 128.48 33.6933 128.48 35.56V50H123.4ZM137.12 50V36.84C137.12 35.64 136.827 34.76 136.24 34.2C135.653 33.6133 134.813 33.32 133.72 33.32C132.733 33.32 131.84 33.5467 131.04 34C130.24 34.4533 129.613 35.0933 129.16 35.92C128.707 36.7467 128.48 37.7067 128.48 38.8L127.6 34.12C128.267 32.6267 129.28 31.44 130.64 30.56C132 29.6533 133.573 29.2 135.36 29.2C137.493 29.2 139.16 29.8133 140.36 31.04C141.587 32.24 142.2 33.84 142.2 35.84V50H137.12ZM159.666 50C159.532 49.4667 159.426 48.88 159.346 48.24C159.292 47.6 159.266 46.8267 159.266 45.92H159.106V36.24C159.106 35.1733 158.799 34.3733 158.186 33.84C157.599 33.28 156.692 33 155.466 33C154.266 33 153.306 33.2267 152.586 33.68C151.892 34.1067 151.466 34.7333 151.306 35.56H146.466C146.679 33.6667 147.586 32.1333 149.186 30.96C150.786 29.7867 152.932 29.2 155.626 29.2C158.426 29.2 160.546 29.84 161.986 31.12C163.426 32.3733 164.146 34.2267 164.146 36.68V45.92C164.146 46.56 164.186 47.2133 164.266 47.88C164.372 48.5467 164.519 49.2533 164.706 50H159.666ZM152.586 50.4C150.532 50.4 148.892 49.8933 147.666 48.88C146.466 47.84 145.866 46.4533 145.866 44.72C145.866 42.8533 146.546 41.3733 147.906 40.28C149.266 39.1867 151.186 38.4533 153.666 38.08L160.026 37.12V40.32L154.506 41.16C153.306 41.3467 152.399 41.68 151.786 42.16C151.199 42.64 150.906 43.3067 150.906 44.16C150.906 44.9333 151.186 45.5333 151.746 45.96C152.306 46.36 153.079 46.56 154.066 46.56C155.506 46.56 156.706 46.2 157.666 45.48C158.626 44.76 159.106 43.88 159.106 42.84L159.666 45.92C159.132 47.3867 158.252 48.5067 157.026 49.28C155.826 50.0267 154.346 50.4 152.586 50.4ZM169.25 50V29.6H174.17V34.4H174.29V50H169.25ZM183.57 50V37.12C183.57 35.8667 183.25 34.92 182.61 34.28C181.97 33.64 181.037 33.32 179.81 33.32C178.744 33.32 177.784 33.56 176.93 34.04C176.104 34.52 175.45 35.1867 174.97 36.04C174.517 36.8933 174.29 37.88 174.29 39L173.77 34.12C174.464 32.6267 175.477 31.44 176.81 30.56C178.144 29.6533 179.744 29.2 181.61 29.2C183.824 29.2 185.544 29.8267 186.77 31.08C188.024 32.3333 188.65 34 188.65 36.08V50H183.57ZM193.586 50V29.6H198.626V50H193.586ZM193.346 26.24V20.68H198.826V26.24H193.346ZM205.382 50V27.72C205.382 25.48 205.995 23.7733 207.222 22.6C208.475 21.4 210.342 20.8 212.822 20.8C213.382 20.8 213.848 20.8267 214.222 20.88C214.595 20.9333 214.955 21.0133 215.302 21.12V25.04C215.115 24.96 214.875 24.9067 214.582 24.88C214.288 24.8267 213.955 24.8 213.582 24.8C212.515 24.8 211.715 25.0667 211.182 25.6C210.675 26.1067 210.422 26.8533 210.422 27.84V50H205.382ZM201.702 33.56V29.6H214.862V33.56H201.702ZM226.968 50.4C224.808 50.4 222.901 49.9467 221.248 49.04C219.621 48.1333 218.354 46.88 217.448 45.28C216.541 43.6533 216.088 41.8 216.088 39.72C216.088 37.64 216.541 35.8133 217.448 34.24C218.354 32.6667 219.621 31.44 221.248 30.56C222.901 29.6533 224.808 29.2 226.968 29.2C229.154 29.2 231.061 29.6533 232.688 30.56C234.314 31.44 235.581 32.6667 236.488 34.24C237.394 35.8133 237.848 37.64 237.848 39.72C237.848 41.8 237.381 43.6533 236.448 45.28C235.541 46.88 234.274 48.1333 232.648 49.04C231.021 49.9467 229.128 50.4 226.968 50.4ZM226.968 46.36C228.034 46.36 228.994 46.0933 229.848 45.56C230.701 45 231.368 44.2267 231.848 43.24C232.328 42.2267 232.568 41.04 232.568 39.68C232.568 37.68 232.034 36.1067 230.968 34.96C229.928 33.8133 228.594 33.24 226.968 33.24C225.341 33.24 223.994 33.8133 222.928 34.96C221.861 36.1067 221.328 37.68 221.328 39.68C221.328 41.04 221.568 42.2267 222.048 43.24C222.554 44.2267 223.221 45 224.048 45.56C224.901 46.0933 225.874 46.36 226.968 46.36ZM241.555 50V21.2H246.595V50H241.555ZM266.506 50V45.4L266.906 45.48C266.559 46.9733 265.719 48.1733 264.386 49.08C263.052 49.96 261.466 50.4 259.626 50.4C257.759 50.4 256.132 49.9733 254.746 49.12C253.386 48.24 252.332 47.0133 251.586 45.44C250.839 43.8667 250.466 42.0133 250.466 39.88C250.466 37.72 250.852 35.84 251.626 34.24C252.399 32.64 253.479 31.4 254.866 30.52C256.279 29.64 257.919 29.2 259.786 29.2C261.706 29.2 263.292 29.6667 264.546 30.6C265.799 31.5067 266.572 32.7733 266.866 34.4L266.346 34.44V21.2H271.426V50H266.506ZM261.106 46.28C262.732 46.28 264.026 45.72 264.986 44.6C265.972 43.4533 266.466 41.8533 266.466 39.8C266.466 37.7467 265.972 36.16 264.986 35.04C263.999 33.92 262.692 33.36 261.066 33.36C259.466 33.36 258.172 33.9333 257.186 35.08C256.199 36.2 255.706 37.7867 255.706 39.84C255.706 41.8933 256.199 43.48 257.186 44.6C258.172 45.72 259.479 46.28 261.106 46.28Z" fill="#3D3847"/>
</g>
<defs>
<linearGradient id="paint0_linear_125_29" x1="-9.13747" y1="55.5246" x2="18.1926" y2="28.1945" gradientUnits="userSpaceOnUse">
<stop stop-color="#1F2D3D" stop-opacity="0"/>
<stop offset="1" stop-color="#1F2D3D" stop-opacity="0.3"/>
</linearGradient>
<clipPath id="clip0_125_29">
<rect width="275" height="70" fill="white"/>
</clipPath>
</defs>
</svg>
