<svg width="71" height="70" viewBox="0 0 71 70" fill="none" xmlns="http://www.w3.org/2000/svg">
<g clip-path="url(#clip0_129_43)">
<mask id="mask0_129_43" style="mask-type:alpha" maskUnits="userSpaceOnUse" x="0" y="0" width="71" height="70">
<path d="M67.5842 2.65152C65.8166 0.883838 63.5186 0 61.1617 0C58.4512 0 56.0354 1.17845 54.3856 3.06397L35.1179 22.3317L15.9681 3.18182C14.3183 1.23737 11.8435 0 9.07416 0C6.71726 0 4.41928 0.883838 2.65161 2.65152C0.648243 4.65488 -0.235595 7.3064 0.0590176 9.95791V60.9259C0.0590176 65.9343 4.12467 70 9.13309 70C14.1415 70 18.2072 65.9343 18.2072 60.9259V30.9343L28.6954 41.4226C30.463 43.1902 32.761 44.0741 35.1179 44.0741C35.1768 44.0741 35.1768 44.0741 35.2358 44.0741C35.2947 44.0741 35.2947 44.0741 35.3536 44.0741C37.6516 44.0741 40.0085 43.1902 41.7762 41.4226L52.2644 30.9343V60.9259C52.2644 65.9343 56.33 70 61.3384 70C66.3469 70 70.4125 65.9343 70.4125 60.9259V9.72222C70.3536 7.18855 69.5287 4.59596 67.5842 2.65152Z" fill="white"/>
</mask>
<g mask="url(#mask0_129_43)">
<ellipse cx="53.6193" cy="90.1515" rx="101.936" ry="101.936" fill="#FA5045"/>
<ellipse cx="53.6193" cy="90.1514" rx="89.8007" ry="89.8008" fill="#FF764A"/>
<ellipse cx="53.6194" cy="90.1516" rx="77.6655" ry="77.6655" fill="#FFCF3F"/>
<ellipse cx="53.6197" cy="90.1516" rx="65.1258" ry="65.1258" fill="#5EDC56"/>
<ellipse cx="53.6194" cy="90.1516" rx="52.9905" ry="52.9906" fill="#1EB8FC"/>
<ellipse cx="53.6194" cy="90.1516" rx="40.8553" ry="40.8553" fill="#AD6DDF"/>
</g>
<path opacity="0.5" d="M0 10.0169V60.926C0 65.9344 4.06565 69.9411 9.07407 69.9411C14.0825 69.9411 18.1481 65.8755 18.1481 60.926V30.9933L2.59259 15.4967C1.06061 13.9647 0.176768 12.0203 0 10.0169Z" fill="url(#paint0_linear_129_43)"/>
</g>
<defs>
<linearGradient id="paint0_linear_129_43" x1="-9.13747" y1="55.5246" x2="18.1926" y2="28.1945" gradientUnits="userSpaceOnUse">
<stop stop-color="#1F2D3D" stop-opacity="0"/>
<stop offset="1" stop-color="#1F2D3D" stop-opacity="0.3"/>
</linearGradient>
<clipPath id="clip0_129_43">
<rect width="71" height="70" fill="white"/>
</clipPath>
</defs>
</svg>
